<?xml version="1.0" encoding="UTF-8"?>
<svg text-rendering="geometricPrecision" shape-rendering="geometricPrecision" width="1122" height="794" viewBox="0 0 1122 794" xmlns="http://www.w3.org/2000/svg">
  <!-- Fondo blanco -->
  <rect width="1122" height="794" fill="#ffffff"/>
  
  <!-- Barra lateral azul -->
  <rect x="0" y="0" width="100" height="794" fill="#1e7fdc"/>
  
  <!-- Logo IDEXUD (círculo) -->
  <g transform="translate(980, 150)">
    <circle cx="50" cy="50" r="35" fill="none" stroke="#1e7fdc" stroke-width="6"/>
    <circle cx="50" cy="50" r="20" fill="#1e7fdc"/>
    <circle cx="50" cy="50" r="12" fill="#ffffff"/>
  </g>
  
  <!-- Texto IDEXUD -->
  <text x="1030" y="250" font-family="Arial, sans-serif" font-size="32" font-weight="bold" fill="#2c3e50" text-anchor="middle">IDEXUD</text>
  <text x="1030" y="275" font-family="Arial, sans-serif" font-size="14" fill="#7f8c8d" text-anchor="middle">#NoTeDetengas</text>
  
  <!-- Título CERTIFICADO -->
  <text x="200" y="200" font-family="Arial, sans-serif" font-size="48" font-weight="bold" fill="#2c3e50">CERTIFICADO</text>
  
  <!-- Subtítulo -->
  <text x="200" y="240" font-family="Arial, sans-serif" font-size="20" fill="#7f8c8d">El presente documento se entrega a:</text>
  
  <!-- Nombre del participante -->
  <text x="200" y="320" font-family="Arial, sans-serif" font-size="42" font-weight="bold" fill="#2c3e50">Diego Alejandro Herrera Jiménez</text>
  
  <!-- Texto por completar -->
  <text x="200" y="380" font-family="Arial, sans-serif" font-size="20" fill="#7f8c8d">Por completar con éxito el curso:</text>
  
  <!-- Recuadro para el evento -->
  <rect x="200" y="400" width="650" height="120" fill="#f8f9fa" stroke="#e9ecef" stroke-width="2"/>
  <rect x="205" y="405" width="8" height="110" fill="#1e7fdc"/>
  
  <!-- Nombre del evento -->
  <text x="230" y="440" font-family="Arial, sans-serif" font-size="28" font-weight="bold" fill="#2c3e50">Capacitación en Transformación Digital</text>
  
  <!-- Descripción del evento (opcional) -->
  <text x="230" y="470" font-family="Arial, sans-serif" font-size="16" fill="#7f8c8d">Desarrollando competencias y habilidades</text>
  <text x="230" y="490" font-family="Arial, sans-serif" font-size="16" fill="#7f8c8d">para el crecimiento profesional y personal</text>
  
  <!-- Íconos y detalles -->
  <!-- Ícono de reloj -->
  <circle cx="220" cy="580" r="12" fill="none" stroke="#1e7fdc" stroke-width="2"/>
  <line x1="220" y1="574" x2="220" y2="580" stroke="#1e7fdc" stroke-width="2"/>
  <line x1="220" y1="580" x2="224" y2="584" stroke="#1e7fdc" stroke-width="2"/>
  <text x="245" y="586" font-family="Arial, sans-serif" font-size="16" fill="#7f8c8d">40 Horas de capacitación</text>
  
  <!-- Ícono de calendario -->
  <rect x="212" y="610" width="16" height="14" fill="none" stroke="#1e7fdc" stroke-width="2"/>
  <line x1="215" y1="608" x2="215" y2="614" stroke="#1e7fdc" stroke-width="2"/>
  <line x1="225" y1="608" x2="225" y2="614" stroke="#1e7fdc" stroke-width="2"/>
  <text x="245" y="622" font-family="Arial, sans-serif" font-size="16" fill="#7f8c8d">12/06/2025</text>
  
  <!-- Ícono de enlace -->
  <circle cx="220" cy="650" r="8" fill="none" stroke="#1e7fdc" stroke-width="2"/>
  <line x1="216" y1="646" x2="224" y2="654" stroke="#1e7fdc" stroke-width="2"/>
  <text x="245" y="656" font-family="Arial, sans-serif" font-size="16" fill="#7f8c8d">https://idexud.unal.edu.co/verificar</text>
  
  <!-- Ícono de trofeo -->
  <g transform="translate(212, 675)">
    <path d="M4,8 L12,8 L12,4 L4,4 Z M2,4 L2,6 L4,6 M14,4 L14,6 L12,6 M6,8 L10,8 L10,12 L6,12 Z M8,12 L8,16 M6,16 L10,16" 
          fill="none" stroke="#1e7fdc" stroke-width="2" stroke-linecap="round" stroke-linejoin="round"/>
  </g>
  <text x="245" y="692" font-family="Arial, sans-serif" font-size="16" fill="#7f8c8d">93A4POQ1QCEQ</text>
  
  <!-- Información adicional -->
  <text x="600" y="580" font-family="Arial, sans-serif" font-size="14" fill="#7f8c8d">Documento de Identificación:</text>
  <text x="600" y="600" font-family="Arial, sans-serif" font-size="16" font-weight="bold" fill="#2c3e50">22334455</text>
  
  <text x="600" y="630" font-family="Arial, sans-serif" font-size="14" fill="#7f8c8d">Rol en el evento:</text>
  <text x="600" y="650" font-family="Arial, sans-serif" font-size="16" font-weight="bold" fill="#2c3e50">Ponente</text>
  
  <!-- Firmas -->
  <g transform="translate(650, 580)">
    <!-- Firma 1 -->
    <path d="M20,40 Q30,30 40,35 Q50,40 60,30" fill="none" stroke="#2c3e50" stroke-width="2"/>
    <text x="40" y="60" font-family="Arial, sans-serif" font-size="14" font-weight="bold" fill="#2c3e50" text-anchor="middle">Director Académico</text>
    <text x="40" y="75" font-family="Arial, sans-serif" font-size="12" fill="#7f8c8d" text-anchor="middle">IDEXUD</text>
    
    <!-- Firma 2 -->
    <path d="M120,40 Q130,25 140,35 Q150,45 160,30 Q170,35 180,40" fill="none" stroke="#2c3e50" stroke-width="2"/>
    <text x="150" y="60" font-family="Arial, sans-serif" font-size="14" font-weight="bold" fill="#2c3e50" text-anchor="middle">Coordinador</text>
    <text x="150" y="75" font-family="Arial, sans-serif" font-size="12" fill="#7f8c8d" text-anchor="middle">Académico</text>
  </g>
  
  <!-- Decoración inferior -->
  <rect x="100" y="750" width="922" height="44" fill="#f8f9fa"/>
  <rect x="100" y="750" width="922" height="4" fill="#1e7fdc"/>
  
  <!-- Código QR simulado (decorativo) -->
  <g transform="translate(850, 680)">
    <rect width="80" height="80" fill="#ffffff" stroke="#e9ecef" stroke-width="1"/>
    <rect x="5" y="5" width="70" height="70" fill="#2c3e50" opacity="0.1"/>
    <text x="40" y="50" font-family="Arial, sans-serif" font-size="10" fill="#7f8c8d" text-anchor="middle">QR</text>
  </g>
  
  <!-- Marca de agua IDEXUD -->
  <g transform="translate(400, 300)" opacity="0.05">
    <circle cx="100" cy="100" r="80" fill="none" stroke="#1e7fdc" stroke-width="10"/>
    <circle cx="100" cy="100" r="50" fill="#1e7fdc"/>
    <text x="100" y="200" font-family="Arial, sans-serif" font-size="24" font-weight="bold" fill="#1e7fdc" text-anchor="middle">IDEXUD</text>
  </g>
</svg>