<?xml version="1.0" encoding="UTF-8"?>
<svg text-rendering="geometricPrecision" shape-rendering="geometricPrecision" width="1200" height="850" viewBox="0 0 1200 850" xmlns="http://www.w3.org/2000/svg" style="background: #f8f9fa;">
  <defs>
    <!-- Gradientes -->
    <linearGradient id="primaryGradient" x1="0%" y1="0%" x2="100%" y2="100%">
      <stop offset="0%" style="stop-color:#1e3a5f;stop-opacity:1" />
      <stop offset="100%" style="stop-color:#2c5282;stop-opacity:1" />
    </linearGradient>
    
    <linearGradient id="goldGradient" x1="0%" y1="0%" x2="100%" y2="100%">
      <stop offset="0%" style="stop-color:#f6d55c;stop-opacity:1" />
      <stop offset="50%" style="stop-color:#fbbf24;stop-opacity:1" />
      <stop offset="100%" style="stop-color:#f59e0b;stop-opacity:1" />
    </linearGradient>
    
    <linearGradient id="cardGradient" x1="0%" y1="0%" x2="100%" y2="100%">
      <stop offset="0%" style="stop-color:#ffffff;stop-opacity:1" />
      <stop offset="100%" style="stop-color:#f8fafc;stop-opacity:1" />
    </linearGradient>
    
    <!-- Filtros -->
    <filter id="dropShadow" x="-50%" y="-50%" width="200%" height="200%">
      <feDropShadow dx="0" dy="8" stdDeviation="12" flood-color="#000" flood-opacity="0.15"/>
    </filter>
    
    <filter id="goldShadow" x="-50%" y="-50%" width="200%" height="200%">
      <feDropShadow dx="0" dy="4" stdDeviation="8" flood-color="#f59e0b" flood-opacity="0.3"/>
    </filter>
    
    <!-- Patrones -->
    <pattern id="subtlePattern" x="0" y="0" width="100" height="100" patternUnits="userSpaceOnUse">
      <circle cx="20" cy="20" r="1" fill="rgba(30, 58, 95, 0.05)"/>
      <circle cx="80" cy="80" r="1.5" fill="rgba(30, 58, 95, 0.05)"/>
      <circle cx="50" cy="60" r="0.8" fill="rgba(30, 58, 95, 0.05)"/>
    </pattern>
    
    <!-- Máscara para el diseño -->
    <mask id="cardMask">
      <rect width="1200" height="850" fill="white"/>
    </mask>
  </defs>
  
  <!-- Fondo principal -->
  <rect width="1200" height="850" fill="url(#cardGradient)"/>
  
  <!-- Patrón sutil de fondo -->
  <rect width="1200" height="850" fill="url(#subtlePattern)" opacity="0.6"/>
  
  <!-- Elementos decorativos principales -->
  <!-- Triángulo superior izquierdo -->
  <polygon points="0,0 300,0 0,200" fill="url(#primaryGradient)"/>
  <polygon points="0,120 180,0 300,0 0,200" fill="url(#goldGradient)" opacity="0.3"/>
  
  <!-- Triángulo inferior derecho -->
  <polygon points="1200,850 900,850 1200,650" fill="url(#primaryGradient)"/>
  <polygon points="1200,730 1020,850 900,850 1200,650" fill="url(#goldGradient)" opacity="0.3"/>
  
  <!-- Líneas decorativas doradas -->
  <path d="M 250,120 L 350,20" stroke="url(#goldGradient)" stroke-width="4" opacity="0.8"/>
  <path d="M 280,150 L 380,50" stroke="url(#goldGradient)" stroke-width="2" opacity="0.6"/>
  
  <path d="M 850,730 L 950,630" stroke="url(#goldGradient)" stroke-width="4" opacity="0.8"/>
  <path d="M 820,700 L 920,600" stroke="url(#goldGradient)" stroke-width="2" opacity="0.6"/>
  
  <!-- Marco principal del certificado -->
  <rect x="80" y="80" width="1040" height="690" rx="12" ry="12" 
        fill="white" stroke="url(#goldGradient)" stroke-width="3" filter="url(#dropShadow)"/>
  
  <!-- Marco interior -->
  <rect x="100" y="100" width="1000" height="650" rx="8" ry="8" 
        fill="none" stroke="#e5e7eb" stroke-width="1"/>
  
  <!-- HEADER: Título Certificate -->
  <text x="600" y="180" text-anchor="middle" fill="url(#goldGradient)" 
        font-family="'Georgia', serif" font-size="48" font-weight="bold" 
        letter-spacing="3px" filter="url(#goldShadow)">Certificate</text>
  
  <!-- Subtítulo -->
  <text x="600" y="210" text-anchor="middle" fill="#6b7280" 
        font-family="'Georgia', serif" font-size="18" font-weight="300" 
        letter-spacing="8px" text-transform="uppercase">OF APPRECIATION</text>
  
  <!-- Línea decorativa bajo el título -->
  <line x1="400" y1="230" x2="800" y2="230" stroke="url(#goldGradient)" stroke-width="2" opacity="0.7"/>
  
  <!-- AWARD BADGE (Círculo dorado con año) -->
  <g transform="translate(950, 180)">
    <!-- Círculo exterior -->
    <circle cx="0" cy="0" r="45" fill="url(#goldGradient)" filter="url(#goldShadow)"/>
    <circle cx="0" cy="0" r="42" fill="url(#primaryGradient)"/>
    <circle cx="0" cy="0" r="35" fill="url(#goldGradient)"/>
    
    <!-- Texto BEST -->
    <text x="0" y="-8" text-anchor="middle" fill="white" 
          font-family="Arial, sans-serif" font-size="10" font-weight="bold">BEST</text>
    
    <!-- Año dinámico -->
    <text x="0" y="8" text-anchor="middle" fill="white" 
          font-family="Arial, sans-serif" font-size="16" font-weight="bold">2025</text>
    
    <!-- Texto AWARD -->
    <text x="0" y="20" text-anchor="middle" fill="white" 
          font-family="Arial, sans-serif" font-size="8" font-weight="bold">AWARD</text>
    
    <!-- Decoraciones del badge -->
    <path d="M -30,-25 Q -32,-20 -30,-15 Q -28,-20 -30,-25" fill="white" opacity="0.6"/>
    <path d="M 30,-25 Q 32,-20 30,-15 Q 28,-20 30,-25" fill="white" opacity="0.6"/>
  </g>
  
  <!-- CONTENIDO PRINCIPAL -->
  <!-- Texto introductorio -->
  <text x="600" y="290" text-anchor="middle" fill="#374151" 
        font-family="'Georgia', serif" font-size="20" font-weight="300">
    THIS CERTIFICATE IS PROUDLY PRESENTED TO
  </text>
  
  <!-- NOMBRE DEL PARTICIPANTE (Campo principal) -->
  <rect x="200" y="310" width="800" height="80" rx="8" ry="8" 
        fill="none" stroke="url(#goldGradient)" stroke-width="2" opacity="0.2"/>
  
  <text x="600" y="365" text-anchor="middle" fill="url(#primaryGradient)" 
        font-family="'Dancing Script', cursive" font-size="42" font-weight="600">
    Ana Sofía Martínez Ruiz
  </text>
  
  <!-- DESCRIPCIÓN DEL EVENTO -->
  <text x="600" y="420" text-anchor="middle" fill="#374151" 
        font-family="'Georgia', serif" font-size="16" font-weight="300">
    Capacitación en Transformación Digital
  </text>
  
  <!-- Detalles del evento en párrafo -->
  <text x="600" y="450" text-anchor="middle" fill="#6b7280" 
        font-family="Arial, sans-serif" font-size="14">
    <tspan x="600" dy="0">Desarrollado por Instituto de Desarrollo y Extensión Universitaria (IDEXUD) en modalidad Virtual</tspan>
    <tspan x="600" dy="20">del 15/07/2025 al 19/08/2025</tspan>
    <tspan x="600" dy="20">con una duración de 40 horas académicas</tspan>
  </text>
  
  <!-- INFORMACIÓN DEL PARTICIPANTE -->
  <g transform="translate(180, 530)">
    <!-- Número de identificación -->
    <rect x="0" y="0" width="200" height="60" rx="6" ry="6" 
          fill="#f8fafc" stroke="#e5e7eb" stroke-width="1"/>
    <text x="100" y="25" text-anchor="middle" fill="#6b7280" 
          font-family="Arial, sans-serif" font-size="12" font-weight="600">
      IDENTIFICACIÓN
    </text>
    <text x="100" y="45" text-anchor="middle" fill="#1f2937" 
          font-family="'Courier New', monospace" font-size="14" font-weight="bold">
      11223344
    </text>
  </g>
  
  <!-- ROL DEL PARTICIPANTE -->
  <g transform="translate(400, 530)">
    <rect x="0" y="0" width="200" height="60" rx="6" ry="6" 
          fill="url(#goldGradient)" opacity="0.1" stroke="url(#goldGradient)" stroke-width="1"/>
    <text x="100" y="25" text-anchor="middle" fill="#6b7280" 
          font-family="Arial, sans-serif" font-size="12" font-weight="600">
      ROL
    </text>
    <text x="100" y="45" text-anchor="middle" fill="url(#primaryGradient)" 
          font-family="Arial, sans-serif" font-size="14" font-weight="bold">
      Participante
    </text>
  </g>
  
  <!-- FIRMAS -->
  <g transform="translate(200, 620)">
    <!-- Línea de firma izquierda -->
    <line x1="0" y1="40" x2="150" y2="40" stroke="#9ca3af" stroke-width="1"/>
    <text x="75" y="60" text-anchor="middle" fill="#374151" 
          font-family="Arial, sans-serif" font-size="14" font-weight="600">
      Lorem Ipsum
    </text>
    <text x="75" y="75" text-anchor="middle" fill="#6b7280" 
          font-family="Arial, sans-serif" font-size="12">
      DIRECTOR
    </text>
  </g>
  
  <g transform="translate(650, 620)">
    <!-- Línea de firma derecha -->
    <line x1="0" y1="40" x2="150" y2="40" stroke="#9ca3af" stroke-width="1"/>
    <text x="75" y="60" text-anchor="middle" fill="#374151" 
          font-family="Arial, sans-serif" font-size="14" font-weight="600">
      Dolor Sit Amet
    </text>
    <text x="75" y="75" text-anchor="middle" fill="#6b7280" 
          font-family="Arial, sans-serif" font-size="12">
      DIRECTOR
    </text>
  </g>
  
  <!-- CÓDIGO QR Y VERIFICACIÓN -->
  <g transform="translate(950, 580)">
    <!-- Marco del código QR -->
    <rect x="0" y="0" width="80" height="80" rx="4" ry="4" 
          fill="white" stroke="#d1d5db" stroke-width="2"/>
    
    <!-- Simulación de código QR con patrón -->
    <g fill="#1f2937">
      <!-- Esquinas del QR -->
      <rect x="8" y="8" width="16" height="16" rx="2"/>
      <rect x="56" y="8" width="16" height="16" rx="2"/>
      <rect x="8" y="56" width="16" height="16" rx="2"/>
      
      <!-- Patrón central simulado -->
      <rect x="32" y="32" width="16" height="16" rx="2"/>
      
      <!-- Puntos de datos simulados -->
      <rect x="10" y="30" width="2" height="2"/>
      <rect x="14" y="30" width="2" height="2"/>
      <rect x="18" y="30" width="2" height="2"/>
      <rect x="30" y="10" width="2" height="2"/>
      <rect x="34" y="10" width="2" height="2"/>
      <rect x="50" y="30" width="2" height="2"/>
      <rect x="54" y="30" width="2" height="2"/>
      <rect x="58" y="30" width="2" height="2"/>
      <rect x="30" y="50" width="2" height="2"/>
      <rect x="34" y="50" width="2" height="2"/>
      <rect x="50" y="50" width="2" height="2"/>
      <rect x="54" y="50" width="2" height="2"/>
      <rect x="62" y="50" width="2" height="2"/>
      <rect x="66" y="50" width="2" height="2"/>
      <rect x="70" y="50" width="2" height="2"/>
    </g>
    
    <!-- Texto de verificación -->
    <text x="40" y="100" text-anchor="middle" fill="#6b7280" 
          font-family="Arial, sans-serif" font-size="10" font-weight="600">
      VERIFICAR
    </text>
  </g>
  
  <!-- CÓDIGO DE VERIFICACIÓN -->
  <g transform="translate(180, 720)">
    <rect x="0" y="0" width="300" height="40" rx="6" ry="6" 
          fill="#f1f5f9" stroke="#cbd5e1" stroke-width="1"/>
    <text x="15" y="18" fill="#64748b" 
          font-family="Arial, sans-serif" font-size="10" font-weight="600">
      CÓDIGO DE VERIFICACIÓN:
    </text>
    <text x="15" y="32" fill="#1e293b" 
          font-family="'Courier New', monospace" font-size="14" font-weight="bold">
      IAMO0V5ZRUS6
    </text>
  </g>
  
  <!-- FECHA DE EMISIÓN -->
  <g transform="translate(520, 720)">
    <rect x="0" y="0" width="200" height="40" rx="6" ry="6" 
          fill="#f1f5f9" stroke="#cbd5e1" stroke-width="1"/>
    <text x="15" y="18" fill="#64748b" 
          font-family="Arial, sans-serif" font-size="10" font-weight="600">
      FECHA DE EMISIÓN:
    </text>
    <text x="15" y="32" fill="#1e293b" 
          font-family="Arial, sans-serif" font-size="12" font-weight="600">
      12/06/2025 11:53
    </text>
  </g>
  
  <!-- URL DE VERIFICACIÓN -->
  <g transform="translate(750, 720)">
    <text x="0" y="15" fill="#6b7280" 
          font-family="Arial, sans-serif" font-size="10">
      Verificar en: http://localhost/certificados_digitales/public/verificar.php?codigo=IAMO0V5ZRUS6
    </text>
    <text x="0" y="35" fill="#1e40af" 
          font-family="Arial, sans-serif" font-size="9" text-decoration="underline">
      http://localhost/certificados_digitales/public/verificar.php?codigo=IAMO0V5ZRUS6
    </text>
  </g>
  
  <!-- Decoraciones finales -->
  <g opacity="0.1">
    <!-- Círculos decorativos sutiles -->
    <circle cx="150" cy="400" r="20" fill="url(#goldGradient)"/>
    <circle cx="1050" cy="400" r="20" fill="url(#goldGradient)"/>
    
    <!-- Líneas decorativas sutiles -->
    <path d="M 120,300 Q 140,290 160,300" stroke="url(#goldGradient)" stroke-width="2"/>
    <path d="M 1040,300 Q 1060,290 1080,300" stroke="url(#goldGradient)" stroke-width="2"/>
  </g>
</svg>